<svg xmlns="http://www.w3.org/2000/svg" xmlns:xlink="http://www.w3.org/1999/xlink" version="1.1" width="300px" height="325px" x="0px" y="0px" viewBox="10 0 80 94" enable-background="new 0 0 100 125" xml:space="preserve">
<g>
<path stroke="#ffffff" fill="#ffffff" d="M39,66.765C39,75.654,40.1,95,50,95s11-19.346,11-28.235C61,58.987,56.075,55,50,55S39,58.987,39,66.765z"/>
</g>
<path stroke="#ffffff" fill="#ffffff" d="M50,5C30.149,5,14,21.149,14,41c0,13.354,7.314,25.023,18.141,31.238C32.042,70.255,32,68.386,32,66.765  c0-0.586,0.032-1.158,0.073-1.725C24.749,59.565,20,50.827,20,41c0-16.542,13.458-30,30-30s30,13.458,30,30  c0,9.827-4.749,18.565-12.073,24.04C67.968,65.607,68,66.178,68,66.765c0,1.621-0.042,3.49-0.141,5.473  C78.686,66.023,86,54.354,86,41C86,21.149,69.851,5,50,5z"/>
<path stroke="#ffffff" fill="#ffffff" d="M34.034,57.532c0.923-1.874,2.154-3.506,3.619-4.882C34.777,49.604,33,45.51,33,41c0-9.374,7.626-17,17-17s17,7.626,17,17  c0,4.51-1.777,8.604-4.653,11.65c1.465,1.376,2.696,3.008,3.619,4.882C70.298,53.347,73,47.485,73,41c0-12.682-10.317-23-23-23  S27,28.318,27,41C27,47.485,29.702,53.347,34.034,57.532z"/>
<circle stroke="#ffffff" fill="#ffffff" cx="50" cy="41" r="8"/>
</svg>
